HIERARCHY
ROOT Hips
{
  OFFSET 40.9192 92.6879 18.85
  CHANNELS 6 Xposition Yposition Zposition Zrotation Xrotation Yrotation
  JOINT LeftUpLeg
  {
    OFFSET 8.64259 1.95398 -2.38835
    CHANNELS 3 Zrotation Xrotation Yrotation
    JOINT LeftLeg
    {
      OFFSET 43.7702 0 0
      CHANNELS 3 Zrotation Xrotation Yrotation
      JOINT LeftFoot
      {
        OFFSET 40.6238 0 0
        CHANNELS 3 Zrotation Xrotation Yrotation
        JOINT LeftToeBase
        {
          OFFSET 12.7242 0 0
          CHANNELS 3 Zrotation Xrotation Yrotation
          End Site
          {
            OFFSET 0 0 0
          }
        }
      }
    }
  }
  JOINT RightUpLeg
  {
    OFFSET -8.2249 1.95398 -2.59336
    CHANNELS 3 Zrotation Xrotation Yrotation
    JOINT RightLeg
    {
      OFFSET 43.5653 0 0
      CHANNELS 3 Zrotation Xrotation Yrotation
      JOINT RightFoot
      {
        OFFSET 40.6238 0 0
        CHANNELS 3 Zrotation Xrotation Yrotation
        JOINT RightToeBase
        {
          OFFSET 12.7242 0 0
          CHANNELS 3 Zrotation Xrotation Yrotation
          End Site
          {
            OFFSET 0 0 0
          }
        }
      }
    }
  }
  JOINT Spine
  {
    OFFSET 0.165834 0.87714 6.61349
    CHANNELS 3 Zrotation Xrotation Yrotation
    JOINT Spine1
    {
      OFFSET 7.38963 1.71661e-005 0
      CHANNELS 3 Zrotation Xrotation Yrotation
      JOINT Spine2
      {
        OFFSET 11.9445 1.14441e-005 0
        CHANNELS 3 Zrotation Xrotation Yrotation
        JOINT Spine3
        {
          OFFSET 14.7254 4.19617e-005 0
          CHANNELS 3 Zrotation Xrotation Yrotation
          JOINT Spine4
          {
            OFFSET 10.9679 0 0
            CHANNELS 3 Zrotation Xrotation Yrotation
            JOINT RightShoulder
            {
              OFFSET 2.46616 -1.6653 3.69651
              CHANNELS 3 Zrotation Xrotation Yrotation
              JOINT RightArm
              {
                OFFSET 13.0012 0 0
                CHANNELS 3 Zrotation Xrotation Yrotation
                JOINT RightForeArm
                {
                  OFFSET 28.7848 1.52588e-005 0
                  CHANNELS 3 Zrotation Xrotation Yrotation
                  JOINT RightHand
                  {
                    OFFSET 26.5688 1.52588e-005 0
                    CHANNELS 3 Zrotation Xrotation Yrotation
                    End Site
                    {
                      OFFSET 0 0 0
                    }
                  }
                }
              }
            }
            JOINT LeftShoulder
            {
              OFFSET 2.38034 -1.29275 -3.7523
              CHANNELS 3 Zrotation Xrotation Yrotation
              JOINT LeftArm
              {
                OFFSET 16.3182 6.10351e-005 0
                CHANNELS 3 Zrotation Xrotation Yrotation
                JOINT LeftForeArm
                {
                  OFFSET 27.0901 0 0
                  CHANNELS 3 Zrotation Xrotation Yrotation
                  JOINT LeftHand
                  {
                    OFFSET 24.5451 1.52588e-005 0
                    CHANNELS 3 Zrotation Xrotation Yrotation
                    End Site
                    {
                      OFFSET 0 0 0
                    }
                  }
                }
              }
            }
            JOINT Neck
            {
              OFFSET 5.0226 -0.0266342 0
              CHANNELS 3 Zrotation Xrotation Yrotation
              JOINT Head
              {
                OFFSET 6.69363 2.86102e-005 0
                CHANNELS 3 Zrotation Xrotation Yrotation
                End Site
                {
                  OFFSET 0 0 0
                }
              }
            }
          }
        }
      }
    }
  }
}
MOTION
Frames:	18
Frame Time:	0.0416667
-267.177 91.6398 -293.943 -90.5104 17.5894 -98.7391 -172.186 7.41353 102.051 -49.0596 52.9559 1.26227 10.8004 -34.5652 -9.19774 115.067 22.3673 -55.7446 162.909 32.3229 76.3126 -46.2209 -0.423536 6.38339 63.8184 -1.99134 -1.14681 36.5291 0.351333 -10.6263 -6.88668 4.98977 -89.479 17.2405 -13.2945 3.42421 5.63273 -13.1309 4.01529 -17.4616 -13.6975 -0.806262 2.55107 -13.6975 -0.806273 63.0163 -31.5864 -152.951 34.5011 -0.32131 62.2769 -15.0548 -20.7392 -48.9586 -14.3581 -1.32523 4.58495 -73.1996 -57.499 103.582 -23.0999 13.2039 17.5028 -73.5904 -31.8815 -75.9412 -100.524 -33.3514 24.6795 -42.476 31.1669 21.5602 25.1924 38.9871 10.576 
-265.276 92.4992 -291.977 -88.5077 33.3411 -97.339 -174.233 3.64665 94.6313 -58.5985 34.1238 7.39069 45.1044 -13.5931 -3.22799 46.6743 15.3426 5.21835 171.626 30.9938 83.3827 -37.1722 -4.74289 0.700081 56.4334 -0.0580571 0.199855 38.9778 0.200962 -12.8824 -3.32979 6.6243 -89.6892 13.6946 -6.45276 1.46828 2.03865 -6.38176 1.75199 -20.6274 -6.59478 -0.548165 -0.614804 -6.59476 -0.548167 77.3186 -34.0473 -128.253 41.6506 0.651264 50.2074 -11.8688 -14.2607 -50.2889 -21.059 -1.64474 3.92516 -114.762 -54.2496 45.5653 -10.006 -8.83223 28.2651 -72.3266 -3.43952 -88.1514 -107.339 -42.8765 32.032 -25.4292 17.5435 11.4576 26.7991 20.6247 6.94026 
-261.708 94.58 -287.029 -83.9639 46.7693 -96.7326 -170.919 -1.06606 93.6544 -44.8071 24.1877 -0.0712571 55.2113 -3.07431 -1.71486 34.5359 4.31109 12.923 177.667 26.6149 89.3166 -14.6823 -12.9149 -2.52438 45.6464 3.53641 3.19194 27.5684 0.831682 -12.2398 -1.29751 7.15201 -89.3712 12.5912 -2.27742 1.52865 0.921587 -2.20793 1.62745 -21.6303 -2.63148 0.772959 -1.6177 -2.63149 0.77296 84.5895 -42.772 -111.555 40.2252 -4.57819 42.5223 -7.42671 -13.0198 -53.1971 -19.4784 -0.797319 -0.33536 -105.344 -47.2641 55.1817 -11.119 -7.12584 23.6895 -4.09469 -1.21547 -102.956 -65.2567 -3.98518 10.6362 -12.8138 9.61943 2.73228 20.3236 10.6895 4.38855 
-255.632 95.5204 -279.989 -79.3905 49.6842 -100.551 -171.528 2.35303 91.0338 -39.0813 21.1681 -1.64415 56.9744 -1.00487 -0.908332 42.1737 11.6255 11.9074 176.716 28.3046 89.4187 -7.23858 -19.6616 -1.81109 49.11 3.18263 2.69016 17.006 0.251126 -4.70853 -0.732776 7.62929 -89.1107 11.6203 -1.04098 1.87964 -0.0516627 -0.95727 1.9236 -22.583 -1.55771 1.47998 -2.57036 -1.55771 1.47998 91.9158 -45.8892 -98.7428 38.3045 -9.70606 33.0902 -5.9914 -13.1294 -56.4568 -18.7678 -0.537852 -1.76689 -96.4992 -45.1661 67.5004 -14.6158 1.78075 13.4653 9.54363 -4.75572 -103.305 28.1853 1.78185 4.35335 7.94543 8.83117 -2.16844 5.58782 9.40155 3.67756 
-249.443 95.5164 -272.956 -80.5561 52.1973 -97.746 -171.473 5.79517 90.9331 -37.929 21.2862 -2.01866 58.6153 0.176907 1.26862 43.1256 12.562 12.1437 179.729 30.6371 90.5284 -21.1407 -14.1265 -3.47081 40.5917 5.18093 5.12029 57.7702 0.891005 -2.97756 -0.280212 7.94582 -89.2741 10.9814 -0.22154 1.46532 -0.690345 -0.156849 1.47364 -23.22 -0.651667 1.33103 -3.20731 -0.651668 1.33103 94.0434 -49.102 -94.7443 34.2708 -12.9867 27.2959 -5.94839 -12.8377 -61.3895 -20.4972 -0.579438 -1.72052 -92.9743 -44.8318 72.8691 -18.3432 8.8954 10.5671 11.3786 -5.57786 -98.3959 27.291 0.606917 -1.73649 14.4973 7.37333 2.97977 2.15651 6.42818 -0.914156 
-243.844 94.8159 -265.696 -83.797 55.7631 -93.4857 -171.33 8.92953 90.7208 -37.1658 18.8179 -2.20564 57.0979 -0.757131 0.517032 44.312 13.7213 12.3077 -179.602 31.6245 91.5306 -42.8328 -7.54584 -3.83859 54.0836 0.732751 0.739567 54.3837 0.619844 -4.41057 0.0865693 8.11478 -89.4881 10.6413 0.407981 0.98078 -1.02999 0.45078 0.961872 -23.5622 0.0943811 1.05804 -3.54957 0.0944004 1.05805 92.8823 -48.2296 -96.7165 32.011 -14.2311 20.5056 -7.84431 -13.5759 -64.7521 -23.6434 -0.765652 -1.05829 -92.7113 -45.2941 73.4143 -22.6217 11.9464 13.6839 10.0259 -1.8324 -92.003 27.6988 0.80608 -1.0353 12.4219 8.31298 1.38635 2.48208 7.88215 1.06207 
-237.798 93.2675 -258.772 -88.5414 57.6288 -88.826 -170.923 13.5165 90.5564 -42.8246 15.7233 -2.13938 61.7241 3.75465 4.65125 45.0073 13.968 9.50709 -179.203 30.1197 91.3803 -61.913 -0.636759 -3.94791 61.5709 -2.59418 -1.54996 42.0302 0.229903 -8.16124 0.358543 8.3278 -89.651 10.2164 0.87373 0.618347 -1.45434 0.900103 0.579285 -23.9899 0.647508 0.852345 -3.97724 0.64751 0.85235 92.713 -46.9127 -97.2404 29.333 -14.2952 12.1379 -11.3136 -12.7892 -68.8352 -24.9509 -0.915049 -0.449927 -93.0581 -47.0828 73.3801 -25.9367 13.6609 15.6335 6.2225 -4.14493 -80.7549 29.5321 0.757841 -1.36263 11.6833 9.19409 -1.10926 1.61466 9.45993 4.13898 
-232.031 91.6784 -252.678 -89.7119 58.6536 -87.5953 -170.953 18.5583 90.4174 -45.4837 15.1504 -1.8638 67.0169 9.088 8.62004 40.9712 10.086 7.11678 -179.028 26.4487 90.3025 -72.6938 2.62171 -4.06006 59.9698 -3.04423 -1.84945 40.2117 0.247682 -9.05077 0.597893 8.31307 -89.6991 10.245 1.32874 0.483884 -1.42533 1.34874 0.424924 -23.9639 1.12188 0.860889 -3.95122 1.12188 0.860885 92.3276 -45.0781 -98.2348 28.4304 -14.0032 4.67094 -10.231 -10.0867 -72.7772 -26.9413 -1.08088 -0.124173 -93.4969 -47.6243 72.8662 -29.9652 13.4059 18.498 5.16498 0.155469 -68.7168 30.2342 1.80265 2.11654 13.8115 8.53683 -1.59291 -0.51242 8.85877 3.99813 
-226.324 90.8892 -247.309 -91.1856 57.6606 -87.4028 -170.897 22.1678 89.7193 -44.7766 11.0306 -2.0971 69.1589 10.0813 6.49017 37.0338 6.55401 4.16351 -179.775 19.053 87.8389 -76.0355 2.39624 -4.49763 55.5638 -1.92271 -1.17936 40.9569 0.193467 -9.86334 0.683399 8.20961 -89.5331 10.4491 1.57537 0.788578 -1.22109 1.60857 0.718455 -23.7597 1.26555 1.22561 -3.74706 1.26555 1.2256 92.3584 -44.524 -98.3017 27.2644 -13.5331 -0.104833 -14.5681 -10.2771 -76.6389 -27.5176 -0.783769 -1.24072 -93.6214 -46.4836 72.3473 -34.7467 15.9534 24.2959 0.414412 0.278724 -60.4999 33.4375 1.86296 1.6713 13.7282 7.14142 -3.59182 -1.23892 7.95235 4.77792 
-220.301 92.3395 -242.067 -94.794 54.6849 -84.9939 -172.117 22.0482 90.1782 -37.446 14.2078 -1.65065 63.8736 5.46075 5.05685 32.5074 2.73474 4.20778 176.643 7.46323 85.8079 -68.9584 1.35564 -4.48473 51.8353 -0.0196404 0.221613 37.5359 0.331431 -9.00192 0.862443 8.31697 -89.5317 10.2338 1.93247 0.763913 -1.43592 1.9642 0.678083 -23.9778 1.61354 1.30948 -3.96516 1.61354 1.30946 93.138 -43.091 -97.3047 27.8578 -13.9572 -1.9502 -15.3296 -8.51751 -81.1034 -27.0267 -0.533126 -2.26627 -93.7051 -46.2877 72.1638 -38.5562 18.0413 31.2797 -1.46519 -0.699397 -63.7901 36.1656 2.28978 2.43778 12.2887 4.84546 -3.13 -0.704374 5.5614 3.84469 
-214.089 95.2095 -236.684 -91.298 53.2411 -87.645 -172.661 20.3623 91.7608 -17.3065 17.3743 -1.97259 49.439 -5.79529 -1.45187 29.2266 -0.0865426 4.34853 175.474 0.328002 86.0613 -55.7868 -1.27777 -5.07151 50.234 1.56667 1.49808 33.5187 0.430371 -8.98252 1.22642 8.05941 -89.5976 10.7506 2.62794 0.558509 -0.917755 2.64997 0.44222 -23.4697 2.33851 1.32286 -3.45705 2.33853 1.32286 93.244 -42.7401 -97.1962 26.8457 -15.1813 -1.37348 -17.4536 -7.13296 -85.1328 -28.1219 -0.476465 -2.49498 -91.3498 -44.7063 75.39 -41.5531 19.5578 33.8268 -2.2314 -1.20185 -65.9377 37.0479 1.89067 1.1573 11.2065 2.61309 -1.02097 -0.649346 2.84517 1.82768 
-207.463 97.7605 -230.894 -86.2362 51.7566 -90.3517 -171.897 22.0932 93.9912 -3.74294 18.1955 -3.31417 41.3088 -12.3673 -10.0217 28.2932 -1.67168 11.039 176.294 -2.4948 89.0901 -43.5952 -8.0183 -5.29023 47.215 2.99315 2.76326 31.0203 0.463034 -7.51159 1.37052 7.73949 -89.8252 11.3972 2.80866 0.0663948 -0.270656 2.80888 -0.0573944 -22.8283 2.65878 0.908049 -2.81569 2.65877 0.908045 93.4849 -42.1092 -96.9164 25.3931 -18.1062 -0.4824 -19.4319 -6.02069 -87.8033 -26.3674 -1.0169 -0.0566543 -89.5882 -44.7057 78.1816 -42.3634 16.6661 35.0262 -1.578 -1.75703 -70.012 37.4203 1.93504 1.22184 12.0254 1.57779 1.86965 -2.18255 1.12622 -0.510378 
-200.709 98.6854 -225.126 -79.4378 50.6597 -95.3814 -172.029 25.7328 94.4282 -6.06747 17.9456 -3.21634 46.2668 -8.98875 -5.78315 34.8941 4.59165 13.9774 177.934 -0.0229438 90.9003 -36.4655 -14.1498 -5.74869 48.1604 2.87887 2.58432 38.2253 0.284702 -10.2911 1.33152 7.38802 -89.7907 12.0996 2.74599 0.115327 0.431512 2.74842 -0.00574463 -22.1249 2.5843 0.93583 -2.11224 2.58431 0.935821 93.7885 -42.2472 -96.3722 26.2154 -19.3223 0.899846 -20.0793 -5.76246 -88.2102 -22.6238 -0.829316 -0.500714 -89.5092 -44.725 78.3115 -41.56 11.2521 34.6356 -1.11504 -2.3543 -74.9487 37.8175 1.48841 -0.0559129 15.1764 1.83359 0.678324 -3.66568 1.63769 1.27948 
-193.197 98.3787 -218.39 -82.2915 49.6811 -93.755 -172.158 27.29 93.9496 -25.1201 17.0782 -2.0878 52.0061 -5.2079 -1.4609 39.8505 9.66172 15.7301 178.341 1.23899 91.9889 -35.0604 -13.4042 -5.3972 51.2083 1.81034 1.59219 38.5537 0.298248 -9.66448 1.15617 7.70771 -89.7648 11.4586 2.4103 0.225313 -0.210071 2.41789 0.118934 -22.7611 2.23109 0.939643 -2.74843 2.23111 0.93963 93.6695 -43.8192 -96.2705 26.8295 -18.953 3.56491 -19.1132 -7.67405 -84.7852 -22.5975 -0.629781 -1.46133 -90.6806 -46.9437 77.0013 -37.7598 9.47028 30.9964 1.63788 -1.73077 -77.549 38.7248 1.73279 0.49587 17.2958 2.18666 0.355337 -3.71735 2.05407 1.71517 
-185.234 96.7465 -211.939 -85.3087 48.7898 -94.5741 -170.541 26.4385 91.9536 -44.4186 13.6409 -2.44742 53.1148 -3.86231 -1.02558 41.2735 11.2025 16.6152 177.86 4.63154 90.381 -37.7296 -9.3057 -5.12866 57.7743 -0.572018 -0.150855 40.8181 0.398651 -4.89538 0.86929 7.94739 -89.4832 10.9722 1.96998 0.840262 -0.697467 2.00504 0.752719 -23.2392 1.62637 1.39355 -3.22658 1.62636 1.39355 93.4876 -45.2802 -96.298 27.6102 -17.6401 7.39126 -17.3651 -10.1925 -79.9981 -22.0764 -0.700784 -1.07179 -91.8319 -48.0338 75.5053 -33.9497 10.0417 26.1227 2.06968 -1.67258 -80.3163 39.6881 1.69659 0.272646 16.1529 2.74635 0.532186 -1.90573 2.59549 2.06241 
-177.885 94.322 -205.899 -86.0208 47.9713 -95.2609 -168.713 24.92 91.9641 -61.2193 12.598 -1.98352 51.2306 -4.49936 -1.21241 40.5664 10.4114 15.8947 177.38 9.64183 90.58 -41.4222 -6.56168 -4.2485 68.2206 -4.34577 -2.35664 44.1455 0.336475 -6.06674 0.588034 7.98726 -89.3555 10.8907 1.46886 1.14378 -0.779842 1.51776 1.07802 -23.3149 1.05724 1.53232 -3.30222 1.05724 1.53232 93.5573 -45.7598 -96.0941 29.1866 -15.792 10.7925 -17.6478 -12.4838 -75.2913 -21.5933 -0.927872 0.217362 -92.791 -47.8621 74.0047 -30.1693 9.57928 21.5601 4.98427 -2.42101 -86.9212 38.9286 2.23024 1.78679 15.6195 3.51543 0.530167 -0.564334 3.37946 2.21358 
-171.354 92.1416 -199.721 -85.8217 47.9395 -94.5574 -167.871 20.9208 93.8227 -71.149 12.9765 -1.1506 47.9994 -5.89449 -3.4159 35.614 5.29817 16.8376 177.011 15.4341 92.0398 -43.9556 -4.14264 -3.02071 76.9704 -7.31145 -3.34084 40.0448 0.423146 -4.0958 0.302983 7.98244 -89.4653 10.9044 0.850616 0.98353 -0.766621 0.893045 0.945134 -23.2998 0.515685 1.19368 -3.28715 0.515707 1.19367 93.1473 -46.7643 -96.5701 28.047 -15.4567 12.5348 -14.0953 -16.7357 -67.7897 -23.9097 -1.15181 0.956194 -93.6966 -48.8286 72.9055 -25.1564 8.23986 15.902 7.86226 -2.95557 -92.3603 38.4958 2.10191 1.51005 17.9025 4.83892 -0.357884 -3.11031 4.85581 3.43961 
-165.491 91.2816 -193.252 -86.9119 49.6841 -91.5002 -167.628 12.356 96.1497 -71.2254 17.139 -1.05379 41.1931 -10.4105 -6.06284 32.2533 1.96954 13.688 177.179 20.4869 94.5183 -44.5486 -3.1057 -1.65969 79.17 -7.96142 -3.48297 31.9451 0.27426 -3.03131 0.148032 7.97156 -89.6639 10.9286 0.45037 0.625935 -0.742434 0.477491 0.605504 -23.2765 0.241428 0.732344 -3.2639 0.241451 0.732354 92.7002 -47.8028 -97.0857 26.7393 -16.0993 15.1809 -11.806 -19.9471 -62.5732 -24.9955 -1.18397 0.985358 -93.2998 -47.0454 73.0027 -22.9706 7.20509 11.1253 10.2399 -3.51102 -95.3037 38.4402 2.7099 3.15031 17.1365 6.22132 -2.54693 -3.95655 6.76134 4.98408 
